<svg xmlns="http://www.w3.org/2000/svg" viewBox="0 0 56.75 15"><g id="Layer_2" data-name="Layer 2"><g id="Layer_1-2" data-name="Layer 1"><path d="M12.15,5.88l.7-.76a1.31,1.31,0,0,0,1,.57c.52,0,.78-.23.78-.93V2.45h-2v-1h3.24V4.86a1.72,1.72,0,0,1-2,1.88A2.12,2.12,0,0,1,12.15,5.88Z" transform="translate(-12.15 -1.34)"/><path d="M17,4.63V1.43h1.22V4.76c0,.59.21.93.69.93s.71-.34.71-.93V1.43h1.18v3.2c0,1.34-.6,2.11-1.89,2.11S17,6,17,4.63Z" transform="translate(-12.15 -1.34)"/><path d="M22.13,1.43h1.21V5.62h2.3v1H22.13Z" transform="translate(-12.15 -1.34)"/><path d="M26.67,5.62h1.21V2.45H26.67v-1h3.64v1H29.1V5.62h1.21v1H26.67Z" transform="translate(-12.15 -1.34)"/><path d="M31.62,1.43h3.47v1H32.83v1h1.92v1H32.83V5.62h2.34v1H31.62Z" transform="translate(-12.15 -1.34)"/><path d="M37.48,2.45H35.93v-1h4.32v1H38.7V6.64H37.48Z" transform="translate(-12.15 -1.34)"/><path d="M45.75,5.88l.7-.76a1.31,1.31,0,0,0,1,.57c.52,0,.78-.23.78-.93V2.45h-2v-1h3.24V4.86a1.72,1.72,0,0,1-2,1.88A2.12,2.12,0,0,1,45.75,5.88Z" transform="translate(-12.15 -1.34)"/><path d="M51.76,1.43h1.46l1.61,5.21H53.54L52.89,4c-.13-.51-.29-1.12-.41-1.67h0c-.13.55-.27,1.16-.4,1.67l-.66,2.62H50.15Zm-.53,3.05h2.5v.95h-2.5Z" transform="translate(-12.15 -1.34)"/><path d="M55.34,1.43h1.27l.49,1.82.17.71h0l.16-.71L58,1.43h1.27V6.64h-1V5.1c0-.59.11-1.89.16-2.46h0l-.41,1.43-.38,1.19H57L56.6,4.07l-.38-1.43h0c.06.57.16,1.87.16,2.46V6.64h-1Z" transform="translate(-12.15 -1.34)"/><path d="M60.42,1.43h3.47v1H61.63v1h1.92v1H61.63V5.62H64v1H60.42Z" transform="translate(-12.15 -1.34)"/><path d="M64.88,6l.7-.84A2.23,2.23,0,0,0,67,5.69c.48,0,.7-.19.7-.42s-.31-.45-.8-.66l-.67-.28a1.52,1.52,0,0,1-1.1-1.43A1.71,1.71,0,0,1,67,1.34,2.54,2.54,0,0,1,68.75,2l-.61.77a1.89,1.89,0,0,0-1.2-.4c-.37,0-.62.15-.62.44s.34.41.84.6l.63.26A1.46,1.46,0,0,1,68.9,5.11c0,.87-.73,1.63-2,1.63A3.06,3.06,0,0,1,64.88,6Z" transform="translate(-12.15 -1.34)"/><path d="M19.47,15.22h1.21V12.05H19.47V11h3.64v1H21.9v3.17h1.21v1H19.47Z" transform="translate(-12.15 -1.34)"/><path d="M24.21,11h1.25l1.05,2.54L27,14.72h0a18.58,18.58,0,0,1-.17-1.91V11H28v5.21H26.73L25.67,13.7l-.44-1.15h0c.06.58.17,1.29.17,1.91v1.78H24.21Z" transform="translate(-12.15 -1.34)"/><path d="M30.28,12.05H28.73V11h4.32v1H31.5v4.19H30.28Z" transform="translate(-12.15 -1.34)"/><path d="M34,11h3.47v1H35.23v1h1.92v1H35.23v1.15h2.34v1H34Z" transform="translate(-12.15 -1.34)"/><path d="M38.63,11H40.5c1.1,0,2,.39,2,1.64s-.92,1.72-2,1.72h-.65v1.85H38.63Zm1.77,2.4c.61,0,.93-.27.93-.76S41,12,40.4,12h-.55v1.43Zm.71-.14,1.67,2.95H41.42l-1.15-2.17Z" transform="translate(-12.15 -1.34)"/><path d="M43.47,15.22h1.21V12.05H43.47V11h3.64v1H45.9v3.17h1.21v1H43.47Z" transform="translate(-12.15 -1.34)"/><path d="M48,13.61c0-1.74.85-2.67,2.1-2.67s2.1.93,2.1,2.67-.85,2.73-2.1,2.73S48,15.4,48,13.61Zm2.95,0c0-1.06-.32-1.62-.85-1.62s-.85.56-.85,1.62.33,1.68.85,1.68S50.94,14.72,50.94,13.61Z" transform="translate(-12.15 -1.34)"/><path d="M53,11H54.9c1.1,0,2,.39,2,1.64s-.92,1.72-2,1.72h-.65v1.85H53Zm1.77,2.4c.61,0,.93-.27.93-.76S55.41,12,54.8,12h-.55v1.43Zm.71-.14,1.67,2.95H55.82l-1.15-2.17Z" transform="translate(-12.15 -1.34)"/><path d="M57.68,15.59l.7-.84a2.25,2.25,0,0,0,1.38.54c.48,0,.7-.19.7-.42s-.31-.45-.8-.66L59,13.93a1.52,1.52,0,0,1-1.1-1.43,1.71,1.71,0,0,1,1.92-1.56,2.54,2.54,0,0,1,1.74.68l-.61.77a1.88,1.88,0,0,0-1.19-.4c-.38,0-.63.15-.63.44s.34.41.84.6l.63.26a1.46,1.46,0,0,1,1.11,1.42c0,.87-.73,1.63-2,1.63A3.06,3.06,0,0,1,57.68,15.59Z" transform="translate(-12.15 -1.34)"/></g></g></svg>